HIERARCHY
ROOT Hips
{
	OFFSET -0.001795 -0.223333 0.028219
	CHANNELS 6 Xposition Yposition Zposition Zrotation Yrotation Xrotation 
	JOINT LeftUpLeg
	{
		OFFSET 0.069520 -0.091406 -0.006815
		CHANNELS 3 Zrotation Yrotation Xrotation
		JOINT LeftLeg
		{
			OFFSET 0.034277 -0.375199 -0.004496
			CHANNELS 3 Zrotation Yrotation Xrotation
			JOINT LeftFoot
			{
				OFFSET -0.013596 -0.397961 -0.043693
				CHANNELS 3 Zrotation Yrotation Xrotation
				JOINT LeftToe
				{
					OFFSET 0.026358 -0.055791 0.119288
					CHANNELS 3 Zrotation Yrotation Xrotation
					End Site
					{
						OFFSET 0.000000 0.000000 0.000000
					}
				}
			}
		}
	}
	JOINT RightUpLeg
	{
		OFFSET -0.067670 -0.090522 -0.004320
		CHANNELS 3 Zrotation Yrotation Xrotation
		JOINT RightLeg
		{
			OFFSET -0.038290 -0.382569 -0.008850
			CHANNELS 3 Zrotation Yrotation Xrotation
			JOINT RightFoot
			{
				OFFSET 0.015774 -0.398415 -0.042312
				CHANNELS 3 Zrotation Yrotation Xrotation
				JOINT RightToe
				{
					OFFSET -0.025372 -0.048144 0.123348
					CHANNELS 3 Zrotation Yrotation Xrotation
					End Site
					{
						OFFSET 0.000000 0.000000 0.000000
					}
				}
			}
		}
	}
	JOINT Spine
	{
		OFFSET -0.002533 0.108963 -0.026696
		CHANNELS 3 Zrotation Yrotation Xrotation
		JOINT Spine1
		{
			OFFSET 0.005487 0.135180 0.001092
			CHANNELS 3 Zrotation Yrotation Xrotation
			JOINT Spine2
			{
				OFFSET 0.001457 0.052922 0.025425
				CHANNELS 3 Zrotation Yrotation Xrotation
				JOINT Neck
				{
					OFFSET -0.002778 0.213870 -0.042857
					CHANNELS 3 Zrotation Yrotation Xrotation
					JOINT Head
					{
						OFFSET 0.005152 0.064970 0.051349
						CHANNELS 3 Zrotation Yrotation Xrotation
						End Site
						{
							OFFSET 0.000000 0.000000 0.000000
						}
					}
				}
				JOINT LeftShoulder
				{
					OFFSET 0.078845 0.121749 -0.034090
					CHANNELS 3 Zrotation Yrotation Xrotation
					JOINT LeftArm
					{
						OFFSET 0.090977 0.030469 -0.008868
						CHANNELS 3 Zrotation Yrotation Xrotation
						JOINT LeftForeArm
						{
							OFFSET 0.259612 -0.012772 -0.027456
							CHANNELS 3 Zrotation Yrotation Xrotation
							JOINT LeftHand
							{
								OFFSET 0.249234 0.008986 -0.001171
								CHANNELS 3 Zrotation Yrotation Xrotation
								End Site
								{
									OFFSET 0.000000 0.000000 0.000000
								}
							}
						}
					}
				}
				JOINT RightShoulder
				{
					OFFSET -0.081759 0.118833 -0.038615
					CHANNELS 3 Zrotation Yrotation Xrotation
					JOINT RightArm
					{
						OFFSET -0.096012 0.032551 -0.009143
						CHANNELS 3 Zrotation Yrotation Xrotation
						JOINT RightForeArm
						{
							OFFSET -0.253742 -0.013329 -0.021401
							CHANNELS 3 Zrotation Yrotation Xrotation
							JOINT RightHand
							{
								OFFSET -0.255298 0.007772 -0.005559
								CHANNELS 3 Zrotation Yrotation Xrotation
								End Site
								{
									OFFSET 0.000000 0.000000 0.000000
								}
							}
						}
					}
				}
			}
		}
	}
}
MOTION
Frames: 5
Frame Time: 0.050000
0.000000 0.715231 0.000000 -3.401587 -4.954624 -1.405124 9.558849 0.084606 -22.088155 9.877834 -12.910498 89.154087 -6.205985 -27.127807 -13.083319 0.000000 0.000000 0.000000 -5.609783 2.930402 -39.206893 9.351839 -3.141745 86.407586 -5.717359 -10.283322 -16.921481 0.000000 0.000000 0.000000 7.966629 -2.135061 20.487264 -6.737331 2.042962 -28.891224 -0.067886 11.561733 29.870434 8.983553 -1.257240 -32.591260 0.000000 0.000000 0.000000 -7.424145 14.498187 -7.387994 -49.590172 21.235856 -16.675011 -22.921198 -44.724307 10.733558 0.000000 0.000000 0.000000 13.787697 -16.381259 -7.702338 56.625944 -9.205292 -11.786813 16.162611 43.877454 10.596006 0.000000 0.000000 0.000000 
0.003726 0.711580 -0.021708 -4.764069 -5.045621 -2.663917 8.002016 -0.212028 -23.470660 13.443803 -17.793392 90.515568 -3.619423 -22.885152 -15.994206 0.000000 0.000000 0.000000 -4.219531 3.672776 -41.947736 11.432990 -5.894831 88.705982 -6.046935 -12.280019 -15.076455 0.000000 0.000000 0.000000 9.348416 -2.591253 22.654354 -9.095562 2.435137 -31.215232 1.262700 11.898248 30.784255 8.504855 -0.944408 -32.830543 0.000000 0.000000 0.000000 -8.530071 11.422490 -6.353794 -50.930863 19.497928 -16.668589 -16.956014 -44.228208 8.224926 0.000000 0.000000 0.000000 14.635717 -16.621798 -7.859267 54.074800 -9.696158 -11.695341 18.630224 45.327165 12.105421 0.000000 0.000000 0.000000 
0.009232 0.709415 -0.043272 -3.718167 -5.098336 -4.057054 7.899052 -0.215205 -22.912414 14.240866 -18.218876 88.845001 -1.766120 -25.775725 -22.543970 0.000000 0.000000 0.000000 -6.037125 3.029464 -41.983616 12.888285 -7.644958 89.689187 -5.633593 -8.245244 -20.916816 0.000000 0.000000 0.000000 9.878724 -2.506668 21.519521 -10.571499 2.967217 -27.526363 -0.697776 11.867279 30.081611 6.752476 0.182634 -35.042250 0.000000 0.000000 0.000000 -12.782252 11.027253 -7.327984 -47.379278 17.232601 -14.348863 -12.376479 -47.355089 6.817383 0.000000 0.000000 0.000000 19.281329 -14.004580 -6.818393 51.564270 -7.817262 -11.012485 13.403583 48.292934 10.628172 0.000000 0.000000 0.000000 
0.016574 0.709253 -0.063594 -3.540534 -5.792859 -4.953061 6.051810 -0.572645 -23.675457 15.178120 -19.066836 89.638968 -0.088033 -24.864856 -26.108488 0.000000 0.000000 0.000000 -6.557926 2.921998 -41.592669 13.475119 -7.787046 89.085863 -4.840788 -4.155886 -21.158486 0.000000 0.000000 0.000000 9.667566 -2.581738 23.137850 -12.462267 3.162865 -30.708537 0.550980 12.362503 32.508004 4.922280 1.166004 -35.757151 0.000000 0.000000 0.000000 -13.667218 10.657559 -7.381020 -48.493971 15.142027 -14.164488 -7.364641 -48.130068 4.876652 0.000000 0.000000 0.000000 19.275688 -14.129864 -6.769466 50.696819 -7.418641 -11.042013 13.338821 49.345334 11.055430 0.000000 0.000000 0.000000 
0.025257 0.708153 -0.083291 -3.692113 -5.883760 -6.252096 6.121542 -0.562882 -25.157073 13.188448 -16.841120 89.937343 2.234204 -22.273692 -30.817467 0.000000 0.000000 0.000000 -7.251190 2.678261 -41.643291 13.521449 -7.819566 89.413888 -4.745760 -3.055702 -21.955880 0.000000 0.000000 0.000000 8.619801 -2.529819 25.066101 -12.072289 3.182216 -29.697317 0.147194 12.782969 31.381399 4.569144 1.453259 -36.062242 0.000000 0.000000 0.000000 -16.419207 10.307342 -8.084222 -46.309025 14.493501 -12.985795 -7.137227 -48.179378 4.621134 0.000000 0.000000 0.000000 19.113341 -13.800760 -6.516024 50.383808 -7.367920 -10.835921 11.284722 49.822029 10.173628 0.000000 0.000000 0.000000 
